<?xml version="1.0" encoding="UTF-8"?><svg id="a" xmlns="http://www.w3.org/2000/svg" xmlns:xlink="http://www.w3.org/1999/xlink" viewBox="0 0 434.12 55"><defs><style>.d,.e,.f{fill:none;}.e,.f{stroke:#fff;stroke-width:.43px;}.g{fill:#231815;}.f{stroke-miterlimit:451.86;}.h{clip-path:url(#b);}</style><clipPath id="b"><rect class="d" x=".54" y="2.52" width="433.58" height="52.29"/></clipPath></defs><g class="h"><path class="g" d="M424.36,15.78c.78,.54,1.36,1.22,1.76,2.02,.4,.81,.69,1.67,.88,2.59,.19,.92,.42,1.77,.7,2.55,.28,.78,.67,1.41,1.19,1.89,.51,.48,1.3,.68,2.35,.59,.85-.06,1.51-.39,1.98-.99,.47-.6,.7-1.33,.7-2.2s-.24-1.79-.73-2.77c-.48-.98-1.24-1.89-2.28-2.72-1.04-.83-2.37-1.53-3.98-2.09s-3.56-.83-5.84-.83c-2.64,0-4.98,.51-7.03,1.54-2.05,1.03-3.76,2.37-5.12,4.04-1.36,1.67-2.37,3.54-3.01,5.62-.64,2.08-.88,4.17-.7,6.28,.18,2.28,.7,4.38,1.58,6.28,.88,1.9,2.04,3.54,3.47,4.9,1.43,1.36,3.11,2.42,5.01,3.18s3.95,1.14,6.15,1.14c1.82,0,3.43-.26,4.83-.77,1.41-.51,2.62-1.13,3.65-1.85,1.02-.72,1.85-1.46,2.48-2.22,.63-.76,1.06-1.38,1.3-1.84,.23-.5,.25-.82,.04-.97-.29-.2-.66-.13-1.1,.22-1.23,.94-2.49,1.63-3.78,2.09-1.29,.46-2.59,.68-3.91,.68s-2.72-.24-4.02-.73c-1.3-.48-2.49-1.18-3.56-2.09-1.07-.91-1.99-2.01-2.75-3.32-.76-1.3-1.32-2.77-1.67-4.42-.44-1.82-.59-3.7-.46-5.65,.13-1.95,.53-3.74,1.21-5.38,.67-1.64,1.63-2.99,2.86-4.04,1.23-1.06,2.74-1.58,4.53-1.58,1.41,0,2.5,.27,3.27,.81m-22.71,28.36c-.12-.47-.17-1.08-.17-1.84V18.35c0-.76,.06-1.38,.17-1.85,.12-.47,.38-.78,.79-.92,.23-.12,.42-.22,.55-.31,.13-.09,.2-.22,.2-.4,0-.35-.26-.51-.79-.48-.41,.03-.99,.06-1.73,.09-.75,.03-1.66,.04-2.75,.04s-1.99-.01-2.72-.04c-.73-.03-1.3-.06-1.71-.09-.53-.03-.79,.13-.79,.48,0,.18,.07,.31,.2,.4,.13,.09,.31,.19,.55,.31,.41,.15,.67,.46,.79,.92,.12,.47,.18,1.08,.18,1.85v23.95c0,.76-.06,1.38-.18,1.84-.12,.47-.38,.78-.79,.92-.23,.12-.42,.22-.55,.31-.13,.09-.2,.22-.2,.4,0,.35,.26,.51,.79,.48,.41-.03,.98-.06,1.71-.09,.73-.03,1.64-.04,2.72-.04s2,.01,2.75,.04c.75,.03,1.32,.06,1.73,.09,.53,.03,.79-.13,.79-.48,0-.18-.07-.31-.2-.4-.13-.09-.32-.19-.55-.31-.41-.15-.67-.45-.79-.92m-12.97,0c-.1-.47-.15-1.08-.15-1.84V18.35c0-.76,.05-1.38,.15-1.85,.1-.47,.36-.78,.77-.92,.23-.12,.42-.22,.57-.31,.15-.09,.22-.22,.22-.4,0-.35-.28-.51-.83-.48-.41,.03-.99,.06-1.73,.09-.75,.03-1.65,.04-2.7,.04s-1.99-.01-2.72-.04-1.3-.06-1.71-.09c-.56-.03-.83,.13-.83,.48,0,.18,.07,.31,.22,.4,.15,.09,.34,.19,.57,.31,.41,.15,.67,.46,.77,.92,.1,.47,.15,1.08,.15,1.85v12.83h-14.37v-12.83c0-.76,.05-1.38,.15-1.85,.1-.47,.36-.78,.77-.92,.23-.12,.42-.22,.57-.31,.15-.09,.22-.22,.22-.4,0-.35-.28-.51-.83-.48-.41,.03-.99,.06-1.74,.09-.75,.03-1.65,.04-2.7,.04s-1.99-.01-2.72-.04-1.3-.06-1.71-.09c-.56-.03-.84,.13-.84,.48,0,.18,.07,.31,.2,.4,.13,.09,.31,.19,.55,.31,.44,.15,.71,.46,.81,.92,.1,.47,.15,1.08,.15,1.85v23.95c0,.76-.05,1.38-.15,1.84-.1,.47-.37,.78-.81,.92-.23,.12-.42,.22-.55,.31-.13,.09-.2,.22-.2,.4,0,.35,.28,.51,.84,.48,.41-.03,.98-.06,1.71-.09,.73-.03,1.64-.04,2.72-.04s1.96,.01,2.7,.04c.75,.03,1.33,.06,1.74,.09,.56,.03,.83-.13,.83-.48,0-.18-.07-.31-.22-.4-.15-.09-.34-.19-.57-.31-.41-.15-.67-.45-.77-.92-.1-.47-.15-1.08-.15-1.84v-9.32h14.37v9.32c0,.76-.05,1.38-.15,1.84-.1,.47-.36,.78-.77,.92-.23,.12-.42,.22-.57,.31-.15,.09-.22,.22-.22,.4,0,.35,.28,.51,.83,.48,.41-.03,.98-.06,1.71-.09,.73-.03,1.64-.04,2.72-.04s1.96,.01,2.7,.04c.75,.03,1.32,.06,1.73,.09,.56,.03,.83-.13,.83-.48,0-.18-.07-.31-.22-.4-.15-.09-.34-.19-.57-.31-.41-.15-.67-.45-.77-.92m-41.5-28.36c.78,.54,1.36,1.22,1.76,2.02,.4,.81,.69,1.67,.88,2.59,.19,.92,.42,1.77,.7,2.55,.28,.78,.67,1.41,1.19,1.89,.51,.48,1.3,.68,2.35,.59,.85-.06,1.51-.39,1.98-.99,.47-.6,.7-1.33,.7-2.2s-.24-1.79-.73-2.77-1.25-1.89-2.29-2.72c-1.04-.83-2.37-1.53-3.98-2.09-1.61-.56-3.56-.83-5.84-.83-2.64,0-4.98,.51-7.03,1.54-2.05,1.03-3.76,2.37-5.12,4.04-1.36,1.67-2.37,3.54-3.01,5.62-.64,2.08-.88,4.17-.7,6.28,.18,2.28,.7,4.38,1.58,6.28,.88,1.9,2.04,3.54,3.47,4.9,1.43,1.36,3.1,2.42,5.01,3.18s3.95,1.14,6.15,1.14c1.82,0,3.43-.26,4.83-.77,1.41-.51,2.62-1.13,3.65-1.85,1.02-.72,1.85-1.46,2.48-2.22,.63-.76,1.06-1.38,1.3-1.84,.23-.5,.25-.82,.04-.97-.29-.2-.66-.13-1.1,.22-1.23,.94-2.49,1.63-3.78,2.09-1.29,.46-2.59,.68-3.91,.68s-2.72-.24-4.02-.73c-1.3-.48-2.49-1.18-3.56-2.09-1.07-.91-1.99-2.01-2.75-3.32-.76-1.3-1.32-2.77-1.67-4.42-.44-1.82-.59-3.7-.46-5.65,.13-1.95,.53-3.74,1.21-5.38,.67-1.64,1.62-2.99,2.86-4.04,1.23-1.06,2.74-1.58,4.52-1.58,1.41,0,2.5,.27,3.27,.81m-30.21-1.3c-.44,.03-1.05,.04-1.85,.04-.73,0-1.4-.01-2-.04-.6-.03-1.22-.06-1.87-.09-.56,0-.83,.18-.83,.53,0,.21,.1,.36,.29,.46,.19,.1,.4,.18,.64,.24,.35,.09,.67,.24,.97,.44,.29,.2,.51,.48,.66,.81,.15,.34,.21,.72,.2,1.16-.02,.44-.14,.94-.37,1.49l-6.86,16.26-6.99-17.44c-.32-.76-.5-1.37-.53-1.82-.03-.45,.16-.77,.57-.94,.15-.09,.29-.18,.44-.28,.15-.1,.22-.26,.22-.46,0-.32-.26-.47-.79-.44-.47,.03-1.19,.06-2.15,.09-.97,.03-2.01,.04-3.12,.04-1.23,0-2.19-.01-2.88-.04-.69-.03-1.24-.06-1.65-.09-.56-.03-.84,.12-.84,.44,0,.35,.28,.6,.84,.75,.17,.03,.36,.09,.55,.18,.19,.09,.39,.24,.59,.44,.2,.21,.41,.48,.61,.81,.2,.34,.44,.78,.7,1.34l11.29,24.91-.79,1.84c-.44,.88-.99,1.63-1.65,2.26-.66,.63-1.39,1.13-2.2,1.49-.81,.37-1.66,.58-2.55,.66-.89,.07-1.79,0-2.7-.24-.76-.2-1.43-.22-2-.04-.57,.18-1,.46-1.3,.86-.29,.4-.45,.86-.48,1.38-.03,.53,.13,1.02,.48,1.49,.35,.47,.89,.86,1.6,1.19,.72,.32,1.66,.47,2.83,.44,2.34-.03,4.31-.9,5.89-2.61,1.58-1.71,2.99-4.01,4.22-6.88l11.12-25.61c.47-1.11,.95-1.99,1.43-2.64,.48-.64,1.12-1.08,1.91-1.32,.23-.06,.42-.13,.57-.22s.22-.22,.22-.4c0-.41-.32-.58-.97-.53-.56,.03-1.05,.06-1.49,.09m-45.51,29.96c-.59,0-.97-.08-1.16-.24-.19-.16-.29-.56-.29-1.21V16.2h3.65c1.49,0,2.83,.23,4.02,.7,1.19,.47,2.2,1.25,3.03,2.33,.84,1.08,1.47,2.52,1.91,4.31,.44,1.79,.66,4.01,.66,6.68,0,2.49-.22,4.64-.66,6.44-.44,1.8-1.08,3.28-1.91,4.44-.83,1.16-1.85,2.01-3.03,2.55-1.19,.54-2.53,.81-4.02,.81h-2.2Zm-9.45-30.05c-.32,0-.54,.04-.66,.13-.12,.09-.18,.22-.18,.4,0,.15,.08,.27,.24,.37,.16,.1,.36,.21,.59,.33,.41,.21,.66,.53,.75,.99,.09,.45,.13,1.15,.13,2.09v23.24c0,.88-.04,1.56-.13,2.04-.09,.48-.34,.83-.75,1.03-.23,.12-.43,.23-.59,.33-.16,.1-.24,.24-.24,.42,0,.32,.28,.48,.83,.48h11.64c2.17,0,4.27-.25,6.31-.75,2.04-.5,3.84-1.35,5.4-2.57,1.57-1.22,2.83-2.86,3.78-4.92,.95-2.07,1.43-4.66,1.43-7.8,0-2.78-.44-5.18-1.32-7.18-.88-2.01-2.07-3.65-3.58-4.92-1.51-1.28-3.29-2.21-5.36-2.81s-4.28-.9-6.66-.9h-11.64Zm-19.63,3.16l5.45,16.7h-10.81l5.36-16.7Zm15.95,26.65c-.23-.42-.48-1.06-.75-1.91l-9.67-27.07c-.09-.32-.34-.51-.75-.57-.38,0-1.19-.09-2.42-.26-.73-.12-1.33-.27-1.8-.46-.47-.19-.86-.21-1.19-.07-.18,.09-.26,.22-.26,.4l-9.14,25.92c-.53,1.58-1,2.75-1.43,3.52-.43,.76-.9,1.22-1.43,1.36-.24,.09-.43,.18-.57,.29-.15,.1-.22,.24-.22,.42,0,.35,.28,.51,.84,.48,.41-.03,.87-.05,1.38-.07,.51-.01,1-.02,1.47-.02,.99,0,1.88,0,2.66,.02,.78,.02,1.37,.04,1.78,.07,.53,.03,.79-.13,.79-.48,0-.32-.25-.56-.75-.7-1.2-.18-1.92-.64-2.15-1.38-.24-.75-.1-1.91,.4-3.49l1.32-4.13h11.95l2.02,6.24c.26,.85,.39,1.49,.37,1.91-.01,.42-.23,.73-.64,.9-.21,.09-.37,.18-.48,.26-.12,.09-.18,.22-.18,.4,0,.35,.26,.51,.79,.48,.41-.03,.98-.06,1.71-.09,.73-.03,1.68-.04,2.86-.04,1.23,0,2.18,.01,2.86,.04,.67,.03,1.21,.06,1.63,.09,.56,.03,.83-.13,.83-.48,0-.18-.07-.31-.22-.42-.15-.1-.34-.2-.57-.29-.47-.15-.82-.43-1.05-.86M173.67,15.78c.78,.54,1.36,1.22,1.76,2.02,.4,.81,.69,1.67,.88,2.59,.19,.92,.42,1.77,.7,2.55,.28,.78,.67,1.41,1.19,1.89,.51,.48,1.3,.68,2.35,.59,.85-.06,1.51-.39,1.98-.99,.47-.6,.7-1.33,.7-2.2s-.24-1.79-.73-2.77c-.48-.98-1.25-1.89-2.29-2.72-1.04-.83-2.37-1.53-3.98-2.09-1.61-.56-3.56-.83-5.84-.83-2.64,0-4.98,.51-7.03,1.54-2.05,1.03-3.76,2.37-5.12,4.04-1.36,1.67-2.37,3.54-3.01,5.62-.65,2.08-.88,4.17-.7,6.28,.18,2.28,.7,4.38,1.58,6.28,.88,1.9,2.04,3.54,3.47,4.9,1.43,1.36,3.1,2.42,5.01,3.18,1.9,.76,3.96,1.14,6.15,1.14,1.82,0,3.43-.26,4.83-.77,1.41-.51,2.62-1.13,3.65-1.85,1.03-.72,1.85-1.46,2.48-2.22,.63-.76,1.06-1.38,1.3-1.84,.23-.5,.25-.82,.04-.97-.29-.2-.66-.13-1.1,.22-1.23,.94-2.49,1.63-3.78,2.09-1.29,.46-2.59,.68-3.91,.68s-2.72-.24-4.02-.73c-1.3-.48-2.49-1.18-3.56-2.09-1.07-.91-1.98-2.01-2.75-3.32-.76-1.3-1.32-2.77-1.67-4.42-.44-1.82-.59-3.7-.46-5.65,.13-1.95,.53-3.74,1.21-5.38,.67-1.64,1.62-2.99,2.85-4.04,1.23-1.06,2.74-1.58,4.53-1.58,1.41,0,2.5,.27,3.27,.81m-22.71,28.36c-.12-.47-.18-1.08-.18-1.84V18.35c0-.76,.06-1.38,.18-1.85,.12-.47,.38-.78,.79-.92,.24-.12,.42-.22,.55-.31,.13-.09,.2-.22,.2-.4,0-.35-.26-.51-.79-.48-.41,.03-.99,.06-1.74,.09-.75,.03-1.66,.04-2.75,.04s-1.99-.01-2.72-.04c-.73-.03-1.3-.06-1.71-.09-.53-.03-.79,.13-.79,.48,0,.18,.07,.31,.2,.4,.13,.09,.31,.19,.55,.31,.41,.15,.67,.46,.79,.92,.12,.47,.18,1.08,.18,1.85v23.95c0,.76-.06,1.38-.18,1.84-.12,.47-.38,.78-.79,.92-.23,.12-.42,.22-.55,.31-.13,.09-.2,.22-.2,.4,0,.35,.26,.51,.79,.48,.41-.03,.98-.06,1.71-.09,.73-.03,1.64-.04,2.72-.04s2,.01,2.75,.04c.75,.03,1.32,.06,1.74,.09,.53,.03,.79-.13,.79-.48,0-.18-.07-.31-.2-.4-.13-.09-.32-.19-.55-.31-.41-.15-.67-.45-.79-.92m-29.09-29.63c-1.49,.45-2.77,1.1-3.82,1.93-1.06,.84-1.86,1.82-2.42,2.94-.56,1.13-.83,2.38-.83,3.76,.03,1.67,.45,3.05,1.27,4.15,.82,1.1,1.85,2.01,3.1,2.75,1.25,.73,2.62,1.36,4.13,1.89,1.51,.53,2.94,1.06,4.31,1.6s2.58,1.16,3.65,1.85c1.07,.69,1.79,1.57,2.18,2.66,.29,.85,.35,1.73,.17,2.64-.17,.91-.53,1.74-1.08,2.48-.54,.75-1.27,1.36-2.18,1.82-.91,.47-1.96,.7-3.16,.7-1.52,0-2.73-.25-3.62-.75-.89-.5-1.58-1.12-2.06-1.87-.48-.75-.86-1.55-1.12-2.42-.26-.86-.54-1.65-.81-2.35-.28-.7-.64-1.27-1.1-1.71-.45-.44-1.14-.62-2.04-.53-.7,.09-1.27,.41-1.69,.97-.42,.56-.64,1.24-.66,2.04s.21,1.66,.66,2.57c.45,.91,1.2,1.74,2.24,2.5,1.04,.76,2.4,1.4,4.09,1.91,1.68,.51,3.74,.77,6.17,.77,2.67,0,4.83-.32,6.5-.94,1.67-.63,2.97-1.43,3.91-2.4,.94-.97,1.59-2.02,1.96-3.16,.37-1.14,.56-2.21,.59-3.21,.06-1.7-.29-3.11-1.05-4.24-.76-1.13-1.76-2.08-2.99-2.85-1.23-.78-2.61-1.43-4.13-1.98-1.52-.54-3.02-1.09-4.48-1.65-1.47-.56-2.82-1.18-4.06-1.87-1.25-.69-2.19-1.56-2.83-2.61-.41-.73-.55-1.51-.42-2.33,.13-.82,.48-1.58,1.03-2.28,.56-.7,1.3-1.28,2.22-1.74,.92-.45,1.97-.65,3.14-.59,1.26,.03,2.23,.25,2.92,.66,.69,.41,1.22,.91,1.6,1.49,.38,.59,.67,1.21,.86,1.87,.19,.66,.41,1.27,.66,1.82,.25,.56,.59,1.03,1.01,1.41,.42,.38,1.05,.57,1.87,.57s1.43-.22,1.91-.66c.48-.44,.75-1,.81-1.67,.06-.67-.11-1.39-.51-2.15-.4-.76-1.05-1.48-1.96-2.15-.91-.67-2.1-1.23-3.58-1.67-1.48-.44-3.27-.66-5.38-.66-1.82,0-3.47,.23-4.96,.68m-27.98,0c-1.49,.45-2.77,1.1-3.82,1.93-1.06,.84-1.86,1.82-2.42,2.94-.56,1.13-.83,2.38-.83,3.76,.03,1.67,.45,3.05,1.27,4.15,.82,1.1,1.85,2.01,3.1,2.75,1.24,.73,2.62,1.36,4.13,1.89,1.51,.53,2.94,1.06,4.31,1.6s2.58,1.16,3.65,1.85c1.07,.69,1.79,1.57,2.17,2.66,.29,.85,.35,1.73,.18,2.64-.18,.91-.54,1.74-1.08,2.48-.54,.75-1.27,1.36-2.17,1.82-.91,.47-1.96,.7-3.16,.7-1.52,0-2.73-.25-3.62-.75-.89-.5-1.58-1.12-2.07-1.87-.48-.75-.86-1.55-1.12-2.42-.26-.86-.54-1.65-.81-2.35-.28-.7-.64-1.27-1.1-1.71-.46-.44-1.14-.62-2.04-.53-.7,.09-1.27,.41-1.69,.97-.42,.56-.64,1.24-.66,2.04s.2,1.66,.66,2.57c.45,.91,1.2,1.74,2.24,2.5,1.04,.76,2.4,1.4,4.09,1.91,1.68,.51,3.74,.77,6.17,.77,2.67,0,4.83-.32,6.5-.94,1.67-.63,2.97-1.43,3.91-2.4,.94-.97,1.59-2.02,1.96-3.16,.37-1.14,.56-2.21,.59-3.21,.06-1.7-.29-3.11-1.06-4.24-.76-1.13-1.76-2.08-2.99-2.85-1.23-.78-2.61-1.43-4.13-1.98-1.52-.54-3.02-1.09-4.48-1.65-1.46-.56-2.82-1.18-4.06-1.87-1.25-.69-2.19-1.56-2.83-2.61-.41-.73-.55-1.51-.42-2.33,.13-.82,.48-1.58,1.03-2.28,.56-.7,1.3-1.28,2.22-1.74,.92-.45,1.97-.65,3.14-.59,1.26,.03,2.23,.25,2.92,.66,.69,.41,1.22,.91,1.6,1.49,.38,.59,.67,1.21,.86,1.87,.19,.66,.41,1.27,.66,1.82,.25,.56,.58,1.03,1.01,1.41,.42,.38,1.05,.57,1.87,.57s1.43-.22,1.91-.66c.48-.44,.75-1,.81-1.67,.06-.67-.11-1.39-.51-2.15-.4-.76-1.05-1.48-1.96-2.15-.91-.67-2.1-1.23-3.58-1.67-1.48-.44-3.27-.66-5.38-.66-1.82,0-3.47,.23-4.97,.68m-26.52,3.05l5.45,16.7h-10.81l5.36-16.7Zm15.95,26.65c-.24-.42-.48-1.06-.75-1.91l-9.67-27.07c-.09-.32-.34-.51-.75-.57-.38,0-1.19-.09-2.42-.26-.73-.12-1.33-.27-1.8-.46-.47-.19-.86-.21-1.19-.07-.18,.09-.26,.22-.26,.4l-9.14,25.92c-.53,1.58-1,2.75-1.43,3.52-.42,.76-.9,1.22-1.43,1.36-.24,.09-.42,.18-.57,.29s-.22,.24-.22,.42c0,.35,.28,.51,.83,.48,.41-.03,.87-.05,1.38-.07,.51-.01,1-.02,1.47-.02,1,0,1.88,0,2.66,.02,.78,.02,1.37,.04,1.78,.07,.53,.03,.79-.13,.79-.48,0-.32-.25-.56-.75-.7-1.2-.18-1.92-.64-2.15-1.38-.24-.75-.1-1.91,.4-3.49l1.32-4.13h11.95l2.02,6.24c.26,.85,.39,1.49,.37,1.91-.01,.42-.23,.73-.64,.9-.21,.09-.37,.18-.48,.26-.12,.09-.18,.22-.18,.4,0,.35,.26,.51,.79,.48,.41-.03,.98-.06,1.71-.09,.73-.03,1.68-.04,2.86-.04,1.23,0,2.18,.01,2.86,.04,.67,.03,1.21,.06,1.63,.09,.56,.03,.83-.13,.83-.48,0-.18-.07-.31-.22-.42-.15-.1-.34-.2-.57-.29-.47-.15-.82-.43-1.06-.86m-31.64-4.81c-.26,.82-.53,1.55-.81,2.18-.28,.63-.62,1.16-1.01,1.58-.4,.43-.88,.75-1.45,.97-.57,.22-1.3,.33-2.17,.33h-4.88c-.59,0-.99-.12-1.21-.37-.22-.25-.33-.67-.33-1.25V18.35c0-.76,.05-1.38,.15-1.85,.1-.47,.36-.78,.77-.92,.23-.12,.43-.22,.57-.31,.15-.09,.22-.22,.22-.4,0-.35-.28-.51-.83-.48-.41,.03-.99,.06-1.74,.09-.75,.03-1.65,.04-2.7,.04s-1.99-.01-2.72-.04c-.73-.03-1.3-.06-1.71-.09-.56-.03-.83,.13-.83,.48v.04c0,.09,.03,.16,.09,.22,.06,.09,.13,.16,.22,.22,.09,.06,.19,.12,.31,.18,.03,0,.1,.03,.22,.09,.41,.21,.66,.53,.75,.99,.09,.45,.13,1.15,.13,2.09v23.24c0,.88-.04,1.56-.13,2.04-.09,.48-.34,.83-.75,1.03-.23,.12-.43,.23-.59,.33-.16,.1-.24,.24-.24,.42,0,.32,.26,.48,.79,.48h14.45c1.47,0,2.6,0,3.41,.02,.81,.01,1.41,.05,1.82,.11,.62,.06,.94-.18,.97-.7,.09-1.08,.17-2.1,.26-3.05,.09-.95,.21-1.97,.35-3.05,.09-.56-.06-.83-.44-.83-.44-.06-.75,.16-.92,.66M19.95,15.78c.78,.54,1.36,1.22,1.76,2.02,.4,.81,.69,1.67,.88,2.59,.19,.92,.42,1.77,.7,2.55,.28,.78,.67,1.41,1.19,1.89,.51,.48,1.3,.68,2.35,.59,.85-.06,1.51-.39,1.98-.99s.7-1.33,.7-2.2-.24-1.79-.73-2.77c-.48-.98-1.25-1.89-2.28-2.72-1.04-.83-2.37-1.53-3.98-2.09s-3.56-.83-5.84-.83c-2.64,0-4.98,.51-7.03,1.54-2.05,1.03-3.76,2.37-5.12,4.04-1.36,1.67-2.37,3.54-3.01,5.62-.64,2.08-.88,4.17-.7,6.28,.18,2.28,.7,4.38,1.58,6.28,.88,1.9,2.04,3.54,3.47,4.9,1.43,1.36,3.1,2.42,5.01,3.18,1.9,.76,3.95,1.14,6.15,1.14,1.82,0,3.43-.26,4.83-.77,1.41-.51,2.62-1.13,3.65-1.85,1.03-.72,1.85-1.46,2.48-2.22,.63-.76,1.06-1.38,1.3-1.84,.23-.5,.25-.82,.04-.97-.29-.2-.66-.13-1.1,.22-1.23,.94-2.49,1.63-3.78,2.09-1.29,.46-2.59,.68-3.91,.68s-2.72-.24-4.02-.73c-1.3-.48-2.49-1.18-3.56-2.09-1.07-.91-1.98-2.01-2.75-3.32-.76-1.3-1.32-2.77-1.67-4.42-.44-1.82-.59-3.7-.46-5.65,.13-1.95,.53-3.74,1.21-5.38,.67-1.64,1.63-2.99,2.86-4.04,1.23-1.06,2.74-1.58,4.53-1.58,1.41,0,2.5,.27,3.27,.81"/><path class="f" d="M424.36,15.78c.78,.54,1.36,1.22,1.76,2.02,.4,.81,.69,1.67,.88,2.59,.19,.92,.42,1.77,.7,2.55,.28,.78,.67,1.41,1.19,1.89,.51,.48,1.3,.68,2.35,.59,.85-.06,1.51-.39,1.98-.99,.47-.6,.7-1.33,.7-2.2s-.24-1.79-.73-2.77c-.48-.98-1.24-1.89-2.28-2.72-1.04-.83-2.37-1.53-3.98-2.09s-3.56-.83-5.84-.83c-2.64,0-4.98,.51-7.03,1.54-2.05,1.03-3.76,2.37-5.12,4.04-1.36,1.67-2.37,3.54-3.01,5.62-.64,2.08-.88,4.17-.7,6.28,.18,2.28,.7,4.38,1.58,6.28,.88,1.9,2.04,3.54,3.47,4.9,1.43,1.36,3.11,2.42,5.01,3.18s3.95,1.14,6.15,1.14c1.82,0,3.43-.26,4.83-.77,1.41-.51,2.62-1.13,3.65-1.85,1.02-.72,1.85-1.46,2.48-2.22,.63-.76,1.06-1.38,1.3-1.84,.23-.5,.25-.82,.04-.97-.29-.2-.66-.13-1.1,.22-1.23,.94-2.49,1.63-3.78,2.09-1.29,.46-2.59,.68-3.91,.68s-2.72-.24-4.02-.73c-1.3-.48-2.49-1.18-3.56-2.09-1.07-.91-1.99-2.01-2.75-3.32-.76-1.3-1.32-2.77-1.67-4.42-.44-1.82-.59-3.7-.46-5.65,.13-1.95,.53-3.74,1.21-5.38,.67-1.64,1.63-2.99,2.86-4.04,1.23-1.06,2.74-1.58,4.53-1.58,1.41,0,2.5,.27,3.27,.81Zm-22.71,28.36c-.12-.47-.17-1.08-.17-1.84V18.35c0-.76,.06-1.38,.17-1.85,.12-.47,.38-.78,.79-.92,.23-.12,.42-.22,.55-.31,.13-.09,.2-.22,.2-.4,0-.35-.26-.51-.79-.48-.41,.03-.99,.06-1.73,.09-.75,.03-1.66,.04-2.75,.04s-1.99-.01-2.72-.04c-.73-.03-1.3-.06-1.71-.09-.53-.03-.79,.13-.79,.48,0,.18,.07,.31,.2,.4,.13,.09,.31,.19,.55,.31,.41,.15,.67,.46,.79,.92,.12,.47,.18,1.08,.18,1.85v23.95c0,.76-.06,1.38-.18,1.84-.12,.47-.38,.78-.79,.92-.23,.12-.42,.22-.55,.31-.13,.09-.2,.22-.2,.4,0,.35,.26,.51,.79,.48,.41-.03,.98-.06,1.71-.09,.73-.03,1.64-.04,2.72-.04s2,.01,2.75,.04c.75,.03,1.32,.06,1.73,.09,.53,.03,.79-.13,.79-.48,0-.18-.07-.31-.2-.4-.13-.09-.32-.19-.55-.31-.41-.15-.67-.45-.79-.92Zm-12.97,0c-.1-.47-.15-1.08-.15-1.84V18.35c0-.76,.05-1.38,.15-1.85,.1-.47,.36-.78,.77-.92,.23-.12,.42-.22,.57-.31,.15-.09,.22-.22,.22-.4,0-.35-.28-.51-.83-.48-.41,.03-.99,.06-1.73,.09-.75,.03-1.65,.04-2.7,.04s-1.99-.01-2.72-.04-1.3-.06-1.71-.09c-.56-.03-.83,.13-.83,.48,0,.18,.07,.31,.22,.4,.15,.09,.34,.19,.57,.31,.41,.15,.67,.46,.77,.92,.1,.47,.15,1.08,.15,1.85v12.83h-14.37v-12.83c0-.76,.05-1.38,.15-1.85,.1-.47,.36-.78,.77-.92,.23-.12,.42-.22,.57-.31,.15-.09,.22-.22,.22-.4,0-.35-.28-.51-.83-.48-.41,.03-.99,.06-1.74,.09-.75,.03-1.65,.04-2.7,.04s-1.99-.01-2.72-.04-1.3-.06-1.71-.09c-.56-.03-.84,.13-.84,.48,0,.18,.07,.31,.2,.4,.13,.09,.31,.19,.55,.31,.44,.15,.71,.46,.81,.92,.1,.47,.15,1.08,.15,1.85v23.95c0,.76-.05,1.38-.15,1.84-.1,.47-.37,.78-.81,.92-.23,.12-.42,.22-.55,.31-.13,.09-.2,.22-.2,.4,0,.35,.28,.51,.84,.48,.41-.03,.98-.06,1.71-.09,.73-.03,1.64-.04,2.72-.04s1.96,.01,2.7,.04c.75,.03,1.33,.06,1.74,.09,.56,.03,.83-.13,.83-.48,0-.18-.07-.31-.22-.4-.15-.09-.34-.19-.57-.31-.41-.15-.67-.45-.77-.92-.1-.47-.15-1.08-.15-1.84v-9.32h14.37v9.32c0,.76-.05,1.38-.15,1.84-.1,.47-.36,.78-.77,.92-.23,.12-.42,.22-.57,.31-.15,.09-.22,.22-.22,.4,0,.35,.28,.51,.83,.48,.41-.03,.98-.06,1.71-.09,.73-.03,1.64-.04,2.72-.04s1.96,.01,2.7,.04c.75,.03,1.32,.06,1.73,.09,.56,.03,.83-.13,.83-.48,0-.18-.07-.31-.22-.4-.15-.09-.34-.19-.57-.31-.41-.15-.67-.45-.77-.92Zm-41.5-28.36c.78,.54,1.36,1.22,1.76,2.02,.4,.81,.69,1.67,.88,2.59,.19,.92,.42,1.77,.7,2.55,.28,.78,.67,1.41,1.19,1.89,.51,.48,1.3,.68,2.35,.59,.85-.06,1.51-.39,1.98-.99,.47-.6,.7-1.33,.7-2.2s-.24-1.79-.73-2.77-1.25-1.89-2.29-2.72c-1.04-.83-2.37-1.53-3.98-2.09-1.61-.56-3.56-.83-5.84-.83-2.64,0-4.98,.51-7.03,1.54-2.05,1.03-3.76,2.37-5.12,4.04-1.36,1.67-2.37,3.54-3.01,5.62-.64,2.08-.88,4.17-.7,6.28,.18,2.28,.7,4.38,1.58,6.28,.88,1.9,2.04,3.54,3.47,4.9,1.43,1.36,3.1,2.42,5.01,3.18s3.95,1.14,6.15,1.14c1.82,0,3.43-.26,4.83-.77,1.41-.51,2.62-1.13,3.65-1.85,1.02-.72,1.85-1.46,2.48-2.22,.63-.76,1.06-1.38,1.3-1.84,.23-.5,.25-.82,.04-.97-.29-.2-.66-.13-1.1,.22-1.23,.94-2.49,1.63-3.78,2.09-1.29,.46-2.59,.68-3.91,.68s-2.72-.24-4.02-.73c-1.3-.48-2.49-1.18-3.56-2.09-1.07-.91-1.99-2.01-2.75-3.32-.76-1.3-1.32-2.77-1.67-4.42-.44-1.82-.59-3.7-.46-5.65,.13-1.95,.53-3.74,1.21-5.38,.67-1.64,1.62-2.99,2.86-4.04,1.23-1.06,2.74-1.58,4.52-1.58,1.41,0,2.5,.27,3.27,.81Zm-30.21-1.3c-.44,.03-1.05,.04-1.85,.04-.73,0-1.4-.01-2-.04-.6-.03-1.22-.06-1.87-.09-.56,0-.83,.18-.83,.53,0,.21,.1,.36,.29,.46,.19,.1,.4,.18,.64,.24,.35,.09,.67,.24,.97,.44,.29,.2,.51,.48,.66,.81,.15,.34,.21,.72,.2,1.16-.02,.44-.14,.94-.37,1.49l-6.86,16.26-6.99-17.44c-.32-.76-.5-1.37-.53-1.82-.03-.45,.16-.77,.57-.94,.15-.09,.29-.18,.44-.28,.15-.1,.22-.26,.22-.46,0-.32-.26-.47-.79-.44-.47,.03-1.19,.06-2.15,.09-.97,.03-2.01,.04-3.12,.04-1.23,0-2.19-.01-2.88-.04-.69-.03-1.24-.06-1.65-.09-.56-.03-.84,.12-.84,.44,0,.35,.28,.6,.84,.75,.17,.03,.36,.09,.55,.18,.19,.09,.39,.24,.59,.44,.2,.21,.41,.48,.61,.81,.2,.34,.44,.78,.7,1.34l11.29,24.91-.79,1.84c-.44,.88-.99,1.63-1.65,2.26-.66,.63-1.39,1.13-2.2,1.49-.81,.37-1.66,.58-2.55,.66-.89,.07-1.79,0-2.7-.24-.76-.2-1.43-.22-2-.04-.57,.18-1,.46-1.3,.86-.29,.4-.45,.86-.48,1.38-.03,.53,.13,1.02,.48,1.49,.35,.47,.89,.86,1.6,1.19,.72,.32,1.66,.47,2.83,.44,2.34-.03,4.31-.9,5.89-2.61,1.58-1.71,2.99-4.01,4.22-6.88l11.12-25.61c.47-1.11,.95-1.99,1.43-2.64,.48-.64,1.12-1.08,1.91-1.32,.23-.06,.42-.13,.57-.22s.22-.22,.22-.4c0-.41-.32-.58-.97-.53-.56,.03-1.05,.06-1.49,.09Zm-45.51,29.96c-.59,0-.97-.08-1.16-.24-.19-.16-.29-.56-.29-1.21V16.2h3.65c1.49,0,2.83,.23,4.02,.7,1.19,.47,2.2,1.25,3.03,2.33,.84,1.08,1.47,2.52,1.91,4.31,.44,1.79,.66,4.01,.66,6.68,0,2.49-.22,4.64-.66,6.44-.44,1.8-1.08,3.28-1.91,4.44-.83,1.16-1.85,2.01-3.03,2.55-1.19,.54-2.53,.81-4.02,.81h-2.2Zm-9.45-30.05c-.32,0-.54,.04-.66,.13-.12,.09-.18,.22-.18,.4,0,.15,.08,.27,.24,.37,.16,.1,.36,.21,.59,.33,.41,.21,.66,.53,.75,.99,.09,.45,.13,1.15,.13,2.09v23.24c0,.88-.04,1.56-.13,2.04-.09,.48-.34,.83-.75,1.03-.23,.12-.43,.23-.59,.33-.16,.1-.24,.24-.24,.42,0,.32,.28,.48,.83,.48h11.64c2.17,0,4.27-.25,6.31-.75,2.04-.5,3.84-1.35,5.4-2.57,1.57-1.22,2.83-2.86,3.78-4.92,.95-2.07,1.43-4.66,1.43-7.8,0-2.78-.44-5.18-1.32-7.18-.88-2.01-2.07-3.65-3.58-4.92-1.51-1.28-3.29-2.21-5.36-2.81s-4.28-.9-6.66-.9h-11.64Zm-19.63,3.16l5.45,16.7h-10.81l5.36-16.7Zm15.95,26.65c-.23-.42-.48-1.06-.75-1.91l-9.67-27.07c-.09-.32-.34-.51-.75-.57-.38,0-1.19-.09-2.42-.26-.73-.12-1.33-.27-1.8-.46-.47-.19-.86-.21-1.19-.07-.18,.09-.26,.22-.26,.4l-9.14,25.92c-.53,1.58-1,2.75-1.43,3.52-.43,.76-.9,1.22-1.43,1.36-.24,.09-.43,.18-.57,.29-.15,.1-.22,.24-.22,.42,0,.35,.28,.51,.84,.48,.41-.03,.87-.05,1.38-.07,.51-.01,1-.02,1.47-.02,.99,0,1.88,0,2.66,.02,.78,.02,1.37,.04,1.78,.07,.53,.03,.79-.13,.79-.48,0-.32-.25-.56-.75-.7-1.2-.18-1.92-.64-2.15-1.38-.24-.75-.1-1.91,.4-3.49l1.32-4.13h11.95l2.02,6.24c.26,.85,.39,1.49,.37,1.91-.01,.42-.23,.73-.64,.9-.21,.09-.37,.18-.48,.26-.12,.09-.18,.22-.18,.4,0,.35,.26,.51,.79,.48,.41-.03,.98-.06,1.71-.09,.73-.03,1.68-.04,2.86-.04,1.23,0,2.18,.01,2.86,.04,.67,.03,1.21,.06,1.63,.09,.56,.03,.83-.13,.83-.48,0-.18-.07-.31-.22-.42-.15-.1-.34-.2-.57-.29-.47-.15-.82-.43-1.05-.86ZM173.67,15.78c.78,.54,1.36,1.22,1.76,2.02,.4,.81,.69,1.67,.88,2.59,.19,.92,.42,1.77,.7,2.55,.28,.78,.67,1.41,1.19,1.89,.51,.48,1.3,.68,2.35,.59,.85-.06,1.51-.39,1.98-.99,.47-.6,.7-1.33,.7-2.2s-.24-1.79-.73-2.77c-.48-.98-1.25-1.89-2.29-2.72-1.04-.83-2.37-1.53-3.98-2.09-1.61-.56-3.56-.83-5.84-.83-2.64,0-4.98,.51-7.03,1.54-2.05,1.03-3.76,2.37-5.12,4.04-1.36,1.67-2.37,3.54-3.01,5.62-.65,2.08-.88,4.17-.7,6.28,.18,2.28,.7,4.38,1.58,6.28,.88,1.9,2.04,3.54,3.47,4.9,1.43,1.36,3.1,2.42,5.01,3.18,1.9,.76,3.96,1.14,6.15,1.14,1.82,0,3.43-.26,4.83-.77,1.41-.51,2.62-1.13,3.65-1.85,1.03-.72,1.85-1.46,2.48-2.22,.63-.76,1.06-1.38,1.3-1.84,.23-.5,.25-.82,.04-.97-.29-.2-.66-.13-1.1,.22-1.23,.94-2.49,1.63-3.78,2.09-1.29,.46-2.59,.68-3.91,.68s-2.72-.24-4.02-.73c-1.3-.48-2.49-1.18-3.56-2.09-1.07-.91-1.98-2.01-2.75-3.32-.76-1.3-1.32-2.77-1.67-4.42-.44-1.82-.59-3.7-.46-5.65,.13-1.95,.53-3.74,1.21-5.38,.67-1.64,1.62-2.99,2.85-4.04,1.23-1.06,2.74-1.58,4.53-1.58,1.41,0,2.5,.27,3.27,.81Zm-22.71,28.36c-.12-.47-.18-1.08-.18-1.84V18.35c0-.76,.06-1.38,.18-1.85,.12-.47,.38-.78,.79-.92,.24-.12,.42-.22,.55-.31,.13-.09,.2-.22,.2-.4,0-.35-.26-.51-.79-.48-.41,.03-.99,.06-1.74,.09-.75,.03-1.66,.04-2.75,.04s-1.99-.01-2.72-.04c-.73-.03-1.3-.06-1.71-.09-.53-.03-.79,.13-.79,.48,0,.18,.07,.31,.2,.4,.13,.09,.31,.19,.55,.31,.41,.15,.67,.46,.79,.92,.12,.47,.18,1.08,.18,1.85v23.95c0,.76-.06,1.38-.18,1.84-.12,.47-.38,.78-.79,.92-.23,.12-.42,.22-.55,.31-.13,.09-.2,.22-.2,.4,0,.35,.26,.51,.79,.48,.41-.03,.98-.06,1.71-.09,.73-.03,1.64-.04,2.72-.04s2,.01,2.75,.04c.75,.03,1.32,.06,1.74,.09,.53,.03,.79-.13,.79-.48,0-.18-.07-.31-.2-.4-.13-.09-.32-.19-.55-.31-.41-.15-.67-.45-.79-.92Zm-29.09-29.63c-1.49,.45-2.77,1.1-3.82,1.93-1.06,.84-1.86,1.82-2.42,2.94-.56,1.13-.83,2.38-.83,3.76,.03,1.67,.45,3.05,1.27,4.15,.82,1.1,1.85,2.01,3.1,2.75,1.25,.73,2.62,1.36,4.13,1.89,1.51,.53,2.94,1.06,4.31,1.6s2.58,1.16,3.65,1.85c1.07,.69,1.79,1.57,2.18,2.66,.29,.85,.35,1.73,.17,2.64-.17,.91-.53,1.74-1.08,2.48-.54,.75-1.27,1.36-2.18,1.82-.91,.47-1.96,.7-3.16,.7-1.52,0-2.73-.25-3.62-.75-.89-.5-1.58-1.12-2.06-1.87-.48-.75-.86-1.55-1.12-2.42-.26-.86-.54-1.65-.81-2.35-.28-.7-.64-1.27-1.1-1.71-.45-.44-1.14-.62-2.04-.53-.7,.09-1.27,.41-1.69,.97-.42,.56-.64,1.24-.66,2.04s.21,1.66,.66,2.57c.45,.91,1.2,1.74,2.24,2.5,1.04,.76,2.4,1.4,4.09,1.91,1.68,.51,3.74,.77,6.17,.77,2.67,0,4.83-.32,6.5-.94,1.67-.63,2.97-1.43,3.91-2.4,.94-.97,1.59-2.02,1.96-3.16,.37-1.14,.56-2.21,.59-3.21,.06-1.7-.29-3.11-1.05-4.24-.76-1.13-1.76-2.08-2.99-2.85-1.23-.78-2.61-1.43-4.13-1.98-1.52-.54-3.02-1.09-4.48-1.65-1.47-.56-2.82-1.18-4.06-1.87-1.25-.69-2.19-1.56-2.83-2.61-.41-.73-.55-1.51-.42-2.33,.13-.82,.48-1.58,1.03-2.28,.56-.7,1.3-1.28,2.22-1.74,.92-.45,1.97-.65,3.14-.59,1.26,.03,2.23,.25,2.92,.66,.69,.41,1.22,.91,1.6,1.49,.38,.59,.67,1.21,.86,1.87,.19,.66,.41,1.27,.66,1.82,.25,.56,.59,1.03,1.01,1.41,.42,.38,1.05,.57,1.87,.57s1.43-.22,1.91-.66c.48-.44,.75-1,.81-1.67,.06-.67-.11-1.39-.51-2.15-.4-.76-1.05-1.48-1.96-2.15-.91-.67-2.1-1.23-3.58-1.67-1.48-.44-3.27-.66-5.38-.66-1.82,0-3.47,.23-4.96,.68Zm-27.98,0c-1.49,.45-2.77,1.1-3.82,1.93-1.06,.84-1.86,1.82-2.42,2.94-.56,1.13-.83,2.38-.83,3.76,.03,1.67,.45,3.05,1.27,4.15,.82,1.1,1.85,2.01,3.1,2.75,1.24,.73,2.62,1.36,4.13,1.89,1.51,.53,2.94,1.06,4.31,1.6s2.58,1.16,3.65,1.85c1.07,.69,1.79,1.57,2.17,2.66,.29,.85,.35,1.73,.18,2.64-.18,.91-.54,1.74-1.08,2.48-.54,.75-1.27,1.36-2.17,1.82-.91,.47-1.96,.7-3.16,.7-1.52,0-2.73-.25-3.62-.75-.89-.5-1.58-1.12-2.07-1.87-.48-.75-.86-1.55-1.12-2.42-.26-.86-.54-1.65-.81-2.35-.28-.7-.64-1.27-1.1-1.71-.46-.44-1.14-.62-2.04-.53-.7,.09-1.27,.41-1.69,.97-.42,.56-.64,1.24-.66,2.04s.2,1.66,.66,2.57c.45,.91,1.2,1.74,2.24,2.5,1.04,.76,2.4,1.4,4.09,1.91,1.68,.51,3.74,.77,6.17,.77,2.67,0,4.83-.32,6.5-.94,1.67-.63,2.97-1.43,3.91-2.4,.94-.97,1.59-2.02,1.96-3.16,.37-1.14,.56-2.21,.59-3.21,.06-1.7-.29-3.11-1.06-4.24-.76-1.13-1.76-2.08-2.99-2.85-1.23-.78-2.61-1.43-4.13-1.98-1.52-.54-3.02-1.09-4.48-1.65-1.46-.56-2.82-1.18-4.06-1.87-1.25-.69-2.19-1.56-2.83-2.61-.41-.73-.55-1.51-.42-2.33,.13-.82,.48-1.58,1.03-2.28,.56-.7,1.3-1.28,2.22-1.74,.92-.45,1.97-.65,3.14-.59,1.26,.03,2.23,.25,2.92,.66,.69,.41,1.22,.91,1.6,1.49,.38,.59,.67,1.21,.86,1.87,.19,.66,.41,1.27,.66,1.82,.25,.56,.58,1.03,1.01,1.41,.42,.38,1.05,.57,1.87,.57s1.43-.22,1.91-.66c.48-.44,.75-1,.81-1.67,.06-.67-.11-1.39-.51-2.15-.4-.76-1.05-1.48-1.96-2.15-.91-.67-2.1-1.23-3.58-1.67-1.48-.44-3.27-.66-5.38-.66-1.82,0-3.47,.23-4.97,.68Zm-26.52,3.05l5.45,16.7h-10.81l5.36-16.7Zm15.95,26.65c-.24-.42-.48-1.06-.75-1.91l-9.67-27.07c-.09-.32-.34-.51-.75-.57-.38,0-1.19-.09-2.42-.26-.73-.12-1.33-.27-1.8-.46-.47-.19-.86-.21-1.19-.07-.18,.09-.26,.22-.26,.4l-9.14,25.92c-.53,1.58-1,2.75-1.43,3.52-.42,.76-.9,1.22-1.43,1.36-.24,.09-.42,.18-.57,.29s-.22,.24-.22,.42c0,.35,.28,.51,.83,.48,.41-.03,.87-.05,1.38-.07,.51-.01,1-.02,1.47-.02,1,0,1.88,0,2.66,.02,.78,.02,1.37,.04,1.78,.07,.53,.03,.79-.13,.79-.48,0-.32-.25-.56-.75-.7-1.2-.18-1.92-.64-2.15-1.38-.24-.75-.1-1.91,.4-3.49l1.32-4.13h11.95l2.02,6.24c.26,.85,.39,1.49,.37,1.91-.01,.42-.23,.73-.64,.9-.21,.09-.37,.18-.48,.26-.12,.09-.18,.22-.18,.4,0,.35,.26,.51,.79,.48,.41-.03,.98-.06,1.71-.09,.73-.03,1.68-.04,2.86-.04,1.23,0,2.18,.01,2.86,.04,.67,.03,1.21,.06,1.63,.09,.56,.03,.83-.13,.83-.48,0-.18-.07-.31-.22-.42-.15-.1-.34-.2-.57-.29-.47-.15-.82-.43-1.06-.86Zm-31.64-4.81c-.26,.82-.53,1.55-.81,2.18-.28,.63-.62,1.16-1.01,1.58-.4,.43-.88,.75-1.45,.97-.57,.22-1.3,.33-2.17,.33h-4.88c-.59,0-.99-.12-1.21-.37-.22-.25-.33-.67-.33-1.25V18.35c0-.76,.05-1.38,.15-1.85,.1-.47,.36-.78,.77-.92,.23-.12,.43-.22,.57-.31,.15-.09,.22-.22,.22-.4,0-.35-.28-.51-.83-.48-.41,.03-.99,.06-1.74,.09-.75,.03-1.65,.04-2.7,.04s-1.99-.01-2.72-.04c-.73-.03-1.3-.06-1.71-.09-.56-.03-.83,.13-.83,.48v.04c0,.09,.03,.16,.09,.22,.06,.09,.13,.16,.22,.22,.09,.06,.19,.12,.31,.18,.03,0,.1,.03,.22,.09,.41,.21,.66,.53,.75,.99,.09,.45,.13,1.15,.13,2.09v23.24c0,.88-.04,1.56-.13,2.04-.09,.48-.34,.83-.75,1.03-.23,.12-.43,.23-.59,.33-.16,.1-.24,.24-.24,.42,0,.32,.26,.48,.79,.48h14.45c1.47,0,2.6,0,3.41,.02,.81,.01,1.41,.05,1.82,.11,.62,.06,.94-.18,.97-.7,.09-1.08,.17-2.1,.26-3.05,.09-.95,.21-1.97,.35-3.05,.09-.56-.06-.83-.44-.83-.44-.06-.75,.16-.92,.66ZM19.95,15.78c.78,.54,1.36,1.22,1.76,2.02,.4,.81,.69,1.67,.88,2.59,.19,.92,.42,1.77,.7,2.55,.28,.78,.67,1.41,1.19,1.89,.51,.48,1.3,.68,2.35,.59,.85-.06,1.51-.39,1.98-.99s.7-1.33,.7-2.2-.24-1.79-.73-2.77c-.48-.98-1.25-1.89-2.28-2.72-1.04-.83-2.37-1.53-3.98-2.09s-3.56-.83-5.84-.83c-2.64,0-4.98,.51-7.03,1.54-2.05,1.03-3.76,2.37-5.12,4.04-1.36,1.67-2.37,3.54-3.01,5.62-.64,2.08-.88,4.17-.7,6.28,.18,2.28,.7,4.38,1.58,6.28,.88,1.9,2.04,3.54,3.47,4.9,1.43,1.36,3.1,2.42,5.01,3.18,1.9,.76,3.95,1.14,6.15,1.14,1.82,0,3.43-.26,4.83-.77,1.41-.51,2.62-1.13,3.65-1.85,1.03-.72,1.85-1.46,2.48-2.22,.63-.76,1.06-1.38,1.3-1.84,.23-.5,.25-.82,.04-.97-.29-.2-.66-.13-1.1,.22-1.23,.94-2.49,1.63-3.78,2.09-1.29,.46-2.59,.68-3.91,.68s-2.72-.24-4.02-.73c-1.3-.48-2.49-1.18-3.56-2.09-1.07-.91-1.98-2.01-2.75-3.32-.76-1.3-1.32-2.77-1.67-4.42-.44-1.82-.59-3.7-.46-5.65,.13-1.95,.53-3.74,1.21-5.38,.67-1.64,1.63-2.99,2.86-4.04,1.23-1.06,2.74-1.58,4.53-1.58,1.41,0,2.5,.27,3.27,.81Z"/><path class="g" d="M225.76,44.26c-.57,1.07-1.12,2.01-1.66,2.83-.54,.82-1.22,1.74-1.85,2.29-.63,.55-1.35,.97-2.16,1.26-.8,.29-1.78,.43-2.92,.43h-13.86c-.76,0-1.25-.16-1.47-.49-.22-.32-.25-.87-.08-1.63l10.44-41.07c.21-.99,.45-1.79,.71-2.4,.26-.61,.68-1.01,1.26-1.2,.34-.15,.61-.29,.83-.4,.21-.12,.35-.29,.4-.52,.1-.46-.22-.67-.95-.63-.54,.04-1.3,.08-2.28,.11-.98,.04-1.59,.06-2.97,.06s-2.02-.02-2.97-.06c-.95-.04-1.68-.08-2.21-.11-.72-.04-1.12,.17-1.22,.63v.06c-.04,.11-.02,.21,.04,.29,.05,.11,.13,.21,.23,.29,.1,.08,.21,.15,.35,.23,.04,0,.13,.04,.26,.11,.48,.27,.71,.7,.7,1.29-.01,.59-.15,1.5-.41,2.72l-9.96,39.07c-.24,1.14-.49,2.31-.74,2.94-.25,.63-.67,1.08-1.26,1.35-.34,.15-.63,.02-.86,.15-.24,.13-.38,.32-.43,.54-.09,.42,.21,.63,.9,.63h25.21c1.91,0,3.38,0,4.43,.03,1.04,.02,1.28,.07,1.79,.14,.78,.08,1.27-.23,1.45-.92,.41-1.41,.78-2.57,1.15-3.81,.38-1.24,.81-2.56,1.3-3.98,.27-.72,.15-1.09-.34-1.09-.56-.08-.47,.21-.83,.86"/><path class="e" d="M225.76,44.26c-.57,1.07-1.12,2.01-1.66,2.83-.54,.82-1.22,1.74-1.85,2.29-.63,.55-1.35,.97-2.16,1.26-.8,.29-1.78,.43-2.92,.43h-13.86c-.76,0-1.25-.16-1.47-.49-.22-.32-.25-.87-.08-1.63l10.44-41.07c.21-.99,.45-1.79,.71-2.4,.26-.61,.68-1.01,1.26-1.2,.34-.15,.61-.29,.83-.4,.21-.12,.35-.29,.4-.52,.1-.46-.22-.67-.95-.63-.54,.04-1.3,.08-2.28,.11-.98,.04-1.59,.06-2.97,.06s-2.02-.02-2.97-.06c-.95-.04-1.68-.08-2.21-.11-.72-.04-1.12,.17-1.22,.63v.06c-.04,.11-.02,.21,.04,.29,.05,.11,.13,.21,.23,.29,.1,.08,.21,.15,.35,.23,.04,0,.13,.04,.26,.11,.48,.27,.71,.7,.7,1.29-.01,.59-.15,1.5-.41,2.72l-9.96,39.07c-.24,1.14-.49,2.31-.74,2.94-.25,.63-.67,1.08-1.26,1.35-.34,.15-.63,.02-.86,.15-.24,.13-.38,.32-.43,.54-.09,.42,.21,.63,.9,.63h25.21c1.91,0,3.38,0,4.43,.03,1.04,.02,1.28,.07,1.79,.14,.78,.08,1.27-.23,1.45-.92,.41-1.41,.78-2.57,1.15-3.81,.38-1.24,.81-2.57,1.3-3.98,.27-.72,.15-1.09-.34-1.09-.56-.08-.47,.21-.83,.86Z"/></g><rect id="c" class="d" width="434" height="55"/></svg>