<?xml version="1.0" encoding="UTF-8"?><svg id="a" xmlns="http://www.w3.org/2000/svg" xmlns:xlink="http://www.w3.org/1999/xlink" viewBox="0 0 480.2 35.25"><defs><style>.c{fill:none;}.d{fill:#231815;}.e{clip-path:url(#b);}</style><clipPath id="b"><rect class="c" x="0" y="0" width="480.2" height="35.25"/></clipPath></defs><g class="e"><path class="d" d="M307.68,34.24V10.21l9.47,24.03h4.31V1.01h-4.41V24.13l-9.1-23.11h-4.68V34.24h4.4Zm-13.65-16.48c0,5.32-3.95,12.94-12.71,12.94s-12.71-7.53-12.71-13.08c0-5.42,3.95-13.08,12.71-13.08,8.45,0,12.71,7.21,12.71,13.22m4.96-.05c0-9.68-7.57-17.71-17.67-17.71s-17.67,8.4-17.67,17.62c0,9.32,7.53,17.62,17.67,17.62,10.1,0,17.67-8.26,17.67-17.53m-37.84-8.4c-.87-1.51-2.16-3.81-5.23-6.01C252.25,.64,248.12,0,245.55,0c-9.5,0-17.49,7.57-17.49,17.49s7.8,17.76,17.44,17.76c5.28,0,11.66-2.39,15.42-9.04h-6.1c-2.34,2.75-5.69,4.5-9.27,4.5-6.65,0-12.53-5.88-12.53-13.17s5.55-12.99,12.62-12.99c5.51,0,8.54,3.63,9.55,4.77h5.97Zm-52.38,24.92v-4.22h-12.02v-11.01h12.02v-4.22h-12.02V5.23h12.02V1.01h-16.71V34.24h16.71ZM175.4,1.01V5.23h4.28v29.01h4.68V5.23h4.28V1.01h-13.24Zm-16.48,0V5.23h4.28v29.01h4.68V5.23h4.28V1.01h-13.24Zm-3.4,33.23v-4.22h-12.02v-11.01h12.02v-4.22h-12.02V5.23h12.02V1.01h-16.71V34.24h16.71ZM129.35,1.01V25.38c0,3.4-2.29,5.19-5.51,5.19s-5.51-1.79-5.51-5.19V1.01h-4.68V24.56c0,6.01,3.17,10.23,10.19,10.23,7.02,0,10.19-4.22,10.19-10.23V1.01h-4.68Zm-24.67,16.75c0,5.32-3.95,12.94-12.71,12.94s-12.71-7.53-12.71-13.08,3.95-13.08,12.71-13.08,12.71,7.21,12.71,13.22m4.96-.05c0-9.68-7.57-17.71-17.67-17.71s-17.67,8.4-17.67,17.62,7.53,17.62,17.67,17.62c10.1,0,17.67-8.26,17.67-17.53m-53.62,16.52v-15.24h9.42v15.24h4.68V1.01h-4.68V14.78h-9.42V1.01h-4.68V34.24h4.68Zm-8.09,0v-4.22h-9.01V1.01h-4.68V34.24h13.69Zm-18.48,0V1.01h-4.68V34.24h4.68Z"/><path class="d" d="M450.85,1.01V25.38c0,3.4-2.29,5.19-5.51,5.19s-5.51-1.79-5.51-5.19V1.01h-4.68V24.55c0,6.01,3.17,10.24,10.19,10.24,7.02,0,10.19-4.22,10.19-10.24V1.01h-4.68Zm-24.67,16.75c0,5.32-3.95,12.94-12.71,12.94-8.72,0-12.71-7.53-12.71-13.08s3.95-13.08,12.71-13.08,12.71,7.2,12.71,13.22m4.96-.05C431.14,8.03,423.57,0,413.47,0c-10.37,0-17.67,8.4-17.67,17.62,0,9.32,7.53,17.62,17.67,17.62,10.1,0,17.67-8.26,17.67-17.53m-39.51,16.52V1.01h-4.68V34.24h4.68Zm-8.3-24.92c-.87-1.52-2.16-3.81-5.23-6.01C374.44,.64,370.31,0,367.74,0c-9.5,0-17.49,7.57-17.49,17.49s7.8,17.76,17.44,17.76c5.28,0,11.66-2.39,15.42-9.04h-6.1c-2.34,2.75-5.69,4.5-9.27,4.5-6.65,0-12.53-5.88-12.53-13.17,0-7.16,5.55-12.99,12.62-12.99,5.51,0,8.54,3.63,9.55,4.77h5.97Z"/><path class="d" d="M0,26.92c.31,1.01,2.78,8.01,10.44,8.01,5.83,0,9.75-3.66,9.75-9.12,0-4.03-2.47-7.36-7.78-10.49-3.85-2.3-5.93-4.09-5.93-6.96,0-2.31,1.83-3.92,4.45-3.92,3.79,0,5.33,3.6,5.61,4.37l4.01-1.55c-.3-.93-2.5-6.95-9.76-6.95-5.37,0-9.26,3.57-9.26,8.49,0,3.74,2.52,7.13,7.49,10.06,3.97,2.33,6.27,4.28,6.27,7.39,0,2.76-1.94,4.55-4.94,4.55-4.02,0-6-4.58-6.33-5.44L0,26.92Z"/><path class="d" d="M325.58,26.92c.31,1.01,2.77,8.01,10.44,8.01,5.83,0,9.75-3.66,9.75-9.12,0-4.03-2.47-7.36-7.78-10.49-3.85-2.3-5.93-4.09-5.93-6.96,0-2.31,1.83-3.92,4.45-3.92,3.79,0,5.33,3.6,5.61,4.37l4.01-1.55c-.3-.93-2.5-6.95-9.76-6.95-5.37,0-9.26,3.57-9.26,8.49,0,3.74,2.52,7.13,7.49,10.06,3.97,2.33,6.27,4.28,6.27,7.39,0,2.76-1.94,4.55-4.94,4.55-4.02,0-6-4.58-6.33-5.44l-4.01,1.55Z"/><path class="d" d="M459.66,26.92c.31,1.01,2.77,8.01,10.44,8.01,5.83,0,9.75-3.66,9.75-9.12,0-4.03-2.47-7.36-7.78-10.49-3.85-2.3-5.93-4.09-5.93-6.96,0-2.31,1.83-3.92,4.45-3.92,3.79,0,5.33,3.6,5.61,4.37l4.01-1.55c-.3-.93-2.5-6.95-9.76-6.95-5.37,0-9.26,3.57-9.26,8.49,0,3.74,2.52,7.13,7.49,10.06,3.97,2.33,6.27,4.28,6.27,7.39,0,2.76-1.94,4.55-4.94,4.55-4.02,0-6-4.58-6.33-5.44l-4.01,1.55Z"/></g></svg>